<?xml version="1.0" standalone="no"?>
<!DOCTYPE svg PUBLIC "-//W3C//DTD SVG 20010904//EN"
 "http://www.w3.org/TR/2001/REC-SVG-20010904/DTD/svg10.dtd">
<svg version="1.0" xmlns="http://www.w3.org/2000/svg"
 width="2310.000000pt" height="750.000000pt" viewBox="0 0 2310.000000 750.000000"
 preserveAspectRatio="xMidYMid meet">
<metadata>
Created by potrace 1.16, written by Peter Selinger 2001-2019
</metadata>
<g transform="translate(0.000000,750.000000) scale(0.100000,-0.100000)"
fill="#000000" stroke="none">
<path d="M10064 4609 c36 -700 36 -2518 0 -3189 l-7 -125 207 0 207 0 -5 45
c-15 118 -26 336 -32 662 -6 324 -5 360 10 383 9 14 23 25 31 25 36 0 157
-133 615 -680 164 -195 313 -372 332 -394 l33 -38 251 -2 250 -1 -139 150
c-252 271 -864 974 -938 1077 l-19 26 178 165 c186 173 454 406 710 617 83 68
149 126 147 128 -2 3 -53 -1 -113 -7 -83 -10 -129 -10 -193 -1 l-84 12 -35
-39 c-360 -397 -684 -719 -841 -838 -106 -80 -151 -94 -180 -58 -26 31 -11
1837 17 2147 l7 69 -24 -6 c-13 -4 -63 -12 -110 -18 -81 -11 -169 -4 -258 18
l-24 6 7 -134z"/>
<path d="M15499 4148 c-73 -95 -162 -211 -198 -258 -53 -69 -60 -81 -36 -66
134 86 530 359 530 366 0 4 -20 24 -45 42 -25 19 -61 46 -81 61 l-37 28 -133
-173z"/>
<path d="M8435 3500 c-435 -68 -711 -347 -813 -825 -24 -108 -26 -141 -26
-340 0 -241 6 -277 73 -451 63 -164 212 -347 366 -451 284 -191 709 -238 1060
-116 117 41 249 107 320 161 l50 38 14 108 c18 142 11 149 -71 70 -117 -112
-279 -203 -435 -246 -101 -27 -294 -29 -398 -4 -90 22 -216 84 -290 144 -118
95 -210 239 -255 402 -23 86 -45 304 -35 365 l6 42 299 7 c165 4 521 4 791 0
l491 -7 -4 189 c-5 200 -18 272 -72 404 -76 189 -220 337 -419 430 -134 63
-224 81 -422 85 -93 2 -197 0 -230 -5z m315 -151 c159 -25 287 -127 365 -291
52 -111 75 -213 82 -364 l6 -111 -300 -7 c-165 -4 -434 -4 -598 0 l-297 7 7
60 c19 171 106 394 195 502 142 171 323 239 540 204z"/>
<path d="M12925 3494 c-173 -32 -284 -78 -442 -183 l-93 -61 0 -120 0 -120 28
0 c21 0 33 9 55 45 64 101 219 204 360 240 269 67 506 -15 610 -212 53 -101
70 -178 71 -320 1 -108 -1 -124 -20 -150 -48 -65 -142 -94 -548 -168 -348 -64
-470 -113 -601 -240 -101 -98 -155 -238 -155 -400 0 -269 181 -485 455 -541
104 -22 306 -15 416 15 133 34 272 116 392 230 31 30 58 52 60 50 2 -2 11 -31
21 -64 26 -84 97 -156 180 -180 75 -22 260 -17 354 10 l62 18 0 49 c0 44 -2
49 -17 43 -35 -14 -101 -17 -136 -6 -46 15 -93 69 -108 123 -16 53 -17 301 -5
903 7 394 6 459 -8 523 -30 144 -112 280 -222 372 -59 50 -185 112 -274 135
-92 24 -330 29 -435 9z m591 -1241 c-4 -98 -9 -255 -12 -350 l-6 -172 -47 -58
c-136 -168 -346 -267 -529 -248 -135 14 -276 120 -322 243 -30 80 -38 226 -16
310 31 123 119 218 257 281 88 40 183 65 415 110 110 22 210 44 224 49 14 6
29 11 33 11 5 1 6 -79 3 -176z"/>
<path d="M15454 3490 c-132 -43 -269 -164 -383 -336 -36 -56 -72 -110 -79
-120 -11 -16 -12 9 -8 141 3 88 9 189 12 223 l7 64 -69 -9 c-86 -10 -151 -10
-234 0 l-65 8 0 -1083 0 -1083 180 0 180 0 0 700 0 700 23 80 c32 110 77 190
144 258 129 130 317 162 470 80 71 -38 74 -32 81 150 3 83 10 167 16 185 9 31
8 34 -17 44 -50 21 -190 20 -258 -2z"/>
<path d="M17964 3496 c-334 -64 -542 -222 -630 -481 -36 -107 -46 -311 -19
-431 44 -204 169 -364 369 -470 50 -27 57 -34 41 -39 -121 -40 -224 -129 -273
-232 -23 -50 -27 -70 -27 -153 0 -81 4 -103 27 -151 39 -84 89 -134 180 -178
l80 -39 -34 -7 c-18 -4 -74 -26 -124 -50 -201 -97 -334 -309 -334 -535 0 -163
52 -285 169 -400 127 -126 297 -200 543 -236 151 -22 433 -15 560 15 344 79
608 296 711 584 169 478 -37 800 -556 867 -45 6 -237 14 -427 19 -380 10 -417
16 -464 72 -52 62 -63 193 -22 264 27 46 85 90 136 105 20 6 109 7 214 3 206
-7 314 4 440 44 252 79 418 242 483 474 13 47 18 101 18 204 0 157 -14 217
-83 350 -35 67 -141 187 -202 228 -24 17 -22 17 60 12 118 -8 326 -24 382 -30
l46 -5 0 95 0 96 -61 -8 c-92 -12 -478 -8 -592 6 -159 19 -527 23 -611 7z
m306 -126 c199 -32 344 -185 386 -411 20 -101 14 -308 -11 -409 -39 -160 -145
-305 -265 -363 -178 -86 -453 -43 -570 91 -50 56 -102 156 -125 238 -25 90
-31 319 -11 424 58 308 292 477 596 430z m135 -2080 c331 -31 471 -137 507
-385 47 -326 -143 -580 -497 -667 -128 -31 -342 -31 -469 0 -171 43 -297 132
-363 258 -47 89 -63 162 -63 289 0 229 63 344 232 426 157 75 389 103 653 79z"/>
<path d="M20285 3494 c-173 -32 -284 -78 -442 -183 l-93 -61 0 -120 0 -120 28
0 c21 0 33 9 55 45 64 101 219 204 360 240 269 67 506 -15 610 -212 53 -101
70 -178 71 -320 1 -108 -1 -124 -20 -150 -48 -65 -142 -94 -548 -168 -348 -64
-470 -113 -601 -240 -101 -98 -155 -238 -155 -400 0 -269 181 -485 455 -541
104 -22 306 -15 416 15 133 34 272 116 392 230 31 30 58 52 60 50 2 -2 11 -31
21 -64 26 -84 97 -156 180 -180 75 -22 260 -17 354 10 l62 18 0 49 c0 44 -2
49 -17 43 -35 -14 -101 -17 -136 -6 -46 15 -93 69 -108 123 -16 53 -17 301 -5
903 7 394 6 459 -8 523 -30 144 -112 280 -222 372 -59 50 -185 112 -274 135
-92 24 -330 29 -435 9z m591 -1241 c-4 -98 -9 -255 -12 -350 l-6 -172 -47 -58
c-136 -168 -346 -267 -529 -248 -135 14 -276 120 -322 243 -30 80 -38 226 -16
310 31 123 119 218 257 281 88 40 183 65 415 110 110 22 210 44 224 49 14 6
29 11 33 11 5 1 6 -79 3 -176z"/>
<path d="M22814 3490 c-132 -43 -269 -164 -383 -336 -36 -56 -72 -110 -79
-120 -11 -16 -12 9 -8 141 3 88 9 189 12 223 l7 64 -69 -9 c-86 -10 -151 -10
-234 0 l-65 8 0 -1083 0 -1083 180 0 180 0 0 700 0 700 23 80 c32 110 77 190
144 258 129 130 317 162 470 80 71 -38 74 -32 81 150 3 83 10 167 16 185 9 31
8 34 -17 44 -50 21 -190 20 -258 -2z"/>
<path d="M16234 3398 c37 -352 37 -1719 0 -2048 l-6 -55 207 0 207 0 -6 55
c-36 317 -36 1705 0 2048 l6 63 -63 -8 c-35 -4 -100 -8 -144 -8 -44 0 -109 4
-144 8 l-63 8 6 -63z"/>
</g>
</svg>
